<svg xmlns="http://www.w3.org/2000/svg" viewBox="0 0 162.74 150.1"><defs><style>.cls-1,.cls-2{fill:none;stroke:#731921;stroke-linecap:round;stroke-miterlimit:10;}.cls-1{stroke-width:3px;}.cls-2{stroke-width:2px;}</style></defs><title>Recurso 20</title><g id="Capa_2" data-name="Capa 2"><g id="perfil"><path class="cls-1" d="M49.36,133c-3.9-18-2-46.56-2-46.56S1.41,85.63,1.5,44.12C1.56,14.46,17.27,4.63,32.06,2.36,52.39-.77,75,3,84.28,41.27a31.87,31.87,0,0,1,.85,5.8"/><path class="cls-1" d="M79.5,66.67C72.32,77.88,60.86,84.4,60.86,84.4A251.52,251.52,0,0,1,68.39,113"/><path class="cls-1" d="M67.68,62.84C82.7,34.11,63,16.6,40.74,14.67"/><path class="cls-1" d="M10.19,46.65c.8,5.2,2.76,12.24,8.2,17.84C29.52,76,43.09,69,50.58,78.64c5.43,7,.29,13.3,3.48,40.39.3,2.54.63,4.87.95,7"/><path class="cls-1" d="M117.86,19.45,161,54.34S145.9,98.41,128,103.6c-10.44,3-28.44-8.95-28.44-8.95s-29.83,50.41-38,53.68c-4.8,1.92-14-7-14.1-11.41S92.91,89.28,92.91,89.28,76.69,72.86,79.32,58.59C82,44.07,117.86,19.45,117.86,19.45Z"/><path class="cls-2" d="M144,46c-1.4-1.06-24.11-19.51-24.11-19.51s-34.21,20.87-33.4,37c.59,11.75,12.11,25.47,12.11,25.47L59.7,129.59c-2.07,2.1-5.5,5.78-4.08,8.3,1.05,1.88,3,3,5.2,4.51"/><path class="cls-1" d="M131.85,49.43C130,48,109.75,68.33,111.52,73c.43,1.14,2,1,2.34,1C121.25,73.49,133.64,50.76,131.85,49.43Z"/><path class="cls-1" d="M117.06,39.24c-2.06-1.53-22.48,18.59-20.4,23.5.5,1.2,2.22,1.16,2.52,1.15C107,63.71,119,40.7,117.06,39.24Z"/><path class="cls-1" d="M144.74,60.76c-2.05-1.53-22.47,18.59-20.4,23.5.51,1.2,2.22,1.16,2.52,1.15C134.65,85.23,146.7,62.22,144.74,60.76Z"/><path class="cls-1" d="M109.59,92.77c.42.46,7.3,7.78,17,5.77,6.8-1.4,7.63-6.44,8.48-7.64"/></g></g></svg>