<svg xmlns="http://www.w3.org/2000/svg" viewBox="0 0 249 249"><defs><style>.cls-1{fill:#fff;}</style></defs><title>Recurso 10</title><g id="Capa_2" data-name="Capa 2"><g id="Login"><g id="Capa_11" data-name="Capa 11"><circle cx="124.5" cy="124.5" r="124.5"/><path class="cls-1" d="M160.1,131.13a36.77,36.77,0,0,0-10.82-53.52c-2-3.53-4-6.61-5-8.21a4.35,4.35,0,0,1-.8-2.74c.38-3.49,6.14-3.82,10.1-7.59,5.44-5.18,6.26-15.69,2.55-19C155,39,154,39.36,146,38.79c-8.39-.6-7.49-1-10-.91-6,.22-7,2.29-17.09,5.39-6.8,2.09-6.32,1.14-12.24,3.13a60.58,60.58,0,0,0-14.57,6.77c-4.65,3-7.4,4.8-9.87,8.37s-1.65,4.58-5.76,12.28c-1.17,2.19-3.69,6.7-3.89,7.06-3,5.4-3.77,6.6-3.82,8.74a11.17,11.17,0,0,0,2.43,6.93,10.74,10.74,0,0,0,7.18,4.28A10.31,10.31,0,0,0,84,99.63c7.42-3.83,8.35-14.09,10-13.91,1.13.12,1.31,5.81,1.76,11.87a36.71,36.71,0,0,0,6,34.46c-16.11,13-25.95,35-19.92,48.84,11.52,26.44,83.24,28.45,96.05,2.51C184.66,169.64,176.22,145.3,160.1,131.13Z"/></g></g></g></svg>